<?xml version="1.0" encoding="UTF-8"?>
<svg viewBox="0 0 765 990" xmlns="http://www.w3.org/2000/svg">
 <path d="m470.4 381.29c0.64459-0.16592 1.2649-0.30719 1.6279-0.2814 0.1658 0.009979 0.3475 0.044891 0.5134 0.055878 0 0-2.1418 0.22775-2.1418 0.22775l5e-4 -0.0022zm-64.237 303.44c-2.0914 6.803-1.5723 14.644-2.0914 18.822-0.52472 4.1827-1.5672 1.5723-1.5672 13.067 0 11.505-2.0964 35.024-4.7068 47.048-2.6154 12.024-2.6154 19.336-2.6154 27.182 0 7.8413-8.3604 41.817-8.3604 41.817l-1.0426 15.164-1.0427 5.2259-0.5292-24.043s-3.1397-9.4136-3.1397-9.4136-9.4085-81.018-9.4085-86.249c0-5.2259-2.6104-14.639-2.6104-14.639s2.0915-6.7983 2.0915-6.7983l1.567-26.134 2.6105-12.024s3.1395-29.798 5.236-56.456c2.0863-26.663 8.8844-63.773 8.8844-63.773l2.0863-10.457s5.755 18.293 10.457 71.615c4.0969 46.408-2.3938 33.522 2.0912 48.091 2.0915 6.7982 4.183 15.164 2.0915 21.957h-7.93e-4zm102.98-368.01l-2.0915-2.0914s0.52469-0.52472 2.6154-3.1395c2.0914-2.6154-2.6154-3.6535-3.1395-6.269-0.52481-2.6154-9.9275-32.932-9.9275-32.932s1.0427-6.7982-1.0439-11.5c-2.0963-4.7068-1.0482-21.438-1.5722-31.889-0.52478-10.457-7.3172-16.726-14.115-20.389-6.7982-3.6587-15.617-6.2992-21.433-5.75-24.708 2.3635-23.599 3.0942-8.3652-4.1827 0 0 1.0483-8.3654 3.1343-14.115 2.0964-5.75-0.51898-3.1294-2.0863-9.4085-1.5672-6.274-0.52472-6.274 0.52469-13.591 1.0427-7.3222-0.52469-10.457-3.1395-13.596-2.6105-3.1243-3.1346-1.0382-3.1346-10.447 0-9.4085-4.7017-19.87-9.4085-43.913-4.7068-24.048-31.37-50.187-37.115-53.841-5.755-3.6586-13.596-4.7067-19.341-4.7067-5.755 0-10.981 3.6586-10.981 3.6586s-7.8363 1.5672-13.067 2.0914c-5.2259 0.52471-12.024 8.3652-18.298 15.688-6.269 7.3121-14.634 29.274-17.25 45.476-2.6104 16.202-1.5673 21.957-5.7499 38.677-4.1827 16.736-7.8414 24.048-7.8414 24.048l3.1346 12.548 17.935 10.966s4.354 6.5361 4.354 6.5361-14.518 7.2567-30.65 10.205c-14.992 2.7416-16.731 6.8032-20.908 30.322-4.1826 23.524-6.279 64.817-9.9376 95.139-3.6536 30.317 18.822 63.249 21.962 66.913 1.9604 2.2879 7.2869 2.2728 10.996 1.9401 1.7133 28.77 2.4039 2.8926-0.02301 28.377-1.0428 10.981-2.6104 23.524-2.6104 23.524l-1.0484 8.3653s-3.1345 9.9276-5.2257 17.774c-2.0864 7.8413 0 26.139 0 26.139s0.52469 26.139 0.52469 31.889v14.105s4.7017 62.735 8.3604 89.913c3.6637 27.187 5.2308 65.875 5.2308 65.875l-0.5191 4.1776 1.0427 4.1777-1.5722 5.231s0.52908 5.2258 0 9.4134c-0.5191 4.1777-3.1344 17.774-3.1344 17.774s1.5722 12.543 0.52463 33.451c-1.0482 20.914 5.2259 60.639 7.8364 77.365 2.6203 16.731 9.9376 50.187 12.029 63.773 2.0914 13.596 1.5672 9.4136 1.5672 9.4136l3.6587 2.6154s2.1165 11.283-0.13571 14.841c-3.598 5.6592-17.104 12.654-17.104 12.654l-1.5622 13.067s35.009-1.3506 41.802-1.8847c6.798-0.51355 14.785 1.0988 22.622-10.401 7.8464-11.505 4.5657-18.867 4.5657-18.867l-1.5724-6.274 1.0484-3.6587 3.6587 3.6587s2.3182 12.145 9.9275 25.615c6.7982 12.024 13.072 8.8845 13.072 8.8845l10.457-1.0427 3.6534-3.1345c3.2453-10.184 2.8876-10.084 9.9377-23 6.2741-11.505 0.5191-9.9377 0.5191-9.9377l9.9376-4.7017 11.495-51.755 2.0964-22.476 3.6535-31.365 3.1396-17.25 1.5623-25.62s5.2308-25.086 6.803-41.288c1.5672-16.212-1.5722-15.164-2.0913-23-0.52472-7.8462 0-8.8945-2.0914-23.01-2.0912-14.115 2.6105-28.745 2.6105-28.745l5.2257-51.23s8.8947-59.072 14.12-77.894c5.2258-18.812 1.5622-22.995 1.5622-39.731 0-16.721 0.5292-20.908 0.5292-20.908s-5.7548-27.182-10.981-46.524c-5.231-19.341-5.7449-19.341-6.2739-28.75-0.4989-9.0608 0.91699-17.084 1.0224-17.668 7.1913 0.7153 16.232 3.5527 16.232 3.5527s4.1777 0 8.8845-4.7018c4.7017-4.7068 7.8361-27.712 8.8844-33.976 1.0427-6.2789 1.5722-21.967 1.5722-21.967l2.0914-3.1344-1.5722-4.1778-0.0031-5e-4z"/>
</svg>
